<svg width="512" height="512" version="1.1" xmlns="http://www.w3.org/2000/svg" desc="Created with imagetracer.js version 1.2.6" ><path fill="rgb(0,0,0)" stroke="rgb(0,0,0)" stroke-width="1" opacity="0.9450980392156862" d="M 358.5 0 L 389.5 1 L 408.5 5 L 420.5 9 L 440.5 19 L 465 38 L 477 52.5 L 487 67.5 Q 496 83 502 101.5 L 507 120.5 L 509 138.5 L 510 139.5 L 511 177.5 L 510 178.5 L 509 197.5 L 503 226.5 Q 496.6 250.1 487 270.5 Q 463.9 318.4 427.5 353 Q 404.7 375.2 376.5 392 L 358.5 401 L 349.5 404 L 341.5 404 L 331.5 400 L 316.5 385 L 309.5 384 L 295.5 390 L 270.5 405 L 260.5 408 L 251.5 408 Q 240.6 406.4 236 398.5 L 234.5 396 L 212.5 405 L 199.5 408 L 186.5 408 Q 178.7 406.3 174 401.5 Q 167 393.3 168 378 L 138.5 387 L 133.5 388 L 117.5 388 Q 110.8 385.8 107 380.5 Q 102.8 374.7 104 363.5 L 113 347.5 L 132.5 328 Q 156.6 308.6 177 285.5 Q 204.1 256.1 220 215.5 L 226 196.5 L 230 176.5 L 231 158.5 L 232 157.5 L 233 124.5 L 237 106.5 L 244 87.5 Q 258.8 54.8 284.5 33 Q 301 18.5 322.5 9 L 337.5 4 L 358.5 0 Z M 361 16 L 344 19 L 325 26 Q 308 34 296 45 Q 270 67 256 101 L 249 127 Q 251 133 248 135 L 248 160 L 247 161 L 247 171 L 246 172 L 245 185 Q 240 210 231 232 Q 213 272 184 302 Q 161 326 135 348 L 123 361 L 120 367 L 121 373 L 124 374 L 132 374 L 150 369 L 187 352 Q 219 334 245 310 L 255 322 Q 225 351 186 370 L 183 375 L 183 387 L 184 389 L 189 392 L 198 392 L 208 390 L 231 380 L 247 370 L 274 347 L 276 347 L 285 357 L 285 359 Q 270 374 251 386 L 249 390 L 253 392 L 259 392 L 265 390 L 290 375 L 308 368 L 317 368 L 329 374 L 337 384 L 344 388 L 354 386 L 376 374 L 411 347 Q 449 312 473 263 L 487 225 L 491 208 L 493 190 L 494 189 L 494 179 L 495 178 L 494 140 L 488 111 Q 478 77 458 55 Q 441 35 415 24 L 389 17 L 361 16 Z " /><path fill="rgb(0,0,0)" stroke="rgb(0,0,0)" stroke-width="1" opacity="0.9450980392156862" d="M 372.5 128 Q 386.5 127.5 392 135.5 Q 401.4 145.6 400 166.5 Q 397.8 179.8 389.5 187 L 379.5 192 L 372.5 192 Q 364.8 189.8 360 184.5 Q 350.6 174.4 352 153.5 Q 354.2 140.2 362.5 133 L 372.5 128 Z M 375 144 Q 369 148 368 156 Q 367 167 371 173 Q 372 177 378 176 Q 383 172 384 165 Q 385 153 381 148 Q 380 143 375 144 Z " /><path fill="rgb(0,0,0)" stroke="rgb(0,0,0)" stroke-width="1" opacity="0.9450980392156862" d="M 452.5 128 Q 466.5 127.5 472 135.5 Q 481.4 145.6 480 166.5 Q 477.8 179.8 469.5 187 L 459.5 192 L 452.5 192 Q 444.8 189.8 440 184.5 Q 430.6 174.4 432 153.5 Q 434.2 140.2 442.5 133 L 452.5 128 Z M 455 144 Q 449 148 448 156 Q 447 167 451 173 Q 452 177 458 176 Q 463 172 464 165 Q 465 153 461 148 Q 460 143 455 144 Z " /><path fill="rgb(0,0,0)" stroke="rgb(0,0,0)" stroke-width="1" opacity="0.9450980392156862" d="M 265.5 288 L 278 297.5 L 268 310 L 266.5 310 L 256 299.5 L 265.5 288 Z " /><path fill="rgb(0,0,0)" stroke="rgb(0,0,0)" stroke-width="1" opacity="0.9450980392156862" d="M 45.5 381 Q 68.5 379.5 77 392.5 Q 82.1 398.4 82 409.5 Q 78.3 429.3 64.5 439 Q 51.3 451.3 26.5 452 L 17.5 450 L 6 442.5 Q -1.2 435.2 0 419.5 Q 4.1 402.6 16.5 394 Q 27.4 383.9 45.5 381 Z M 48 397 Q 37 399 30 404 Q 20 410 16 422 L 17 431 L 24 435 Q 28 434 30 436 L 44 433 L 53 428 L 62 419 Q 67 414 65 404 Q 61 396 48 397 Z " /><path fill="rgb(0,0,0)" stroke="rgb(0,0,0)" stroke-width="1" opacity="0.9450980392156862" d="M 306.5 416 Q 325.2 414.3 331 425.5 L 334 433.5 L 334 438.5 Q 331.4 451.9 321.5 458 Q 313.7 464.2 299.5 464 Q 288.6 462.4 284 454.5 Q 279.9 450.1 281 440.5 Q 283.5 430 290.5 424 L 306.5 416 Z M 310 432 L 303 435 Q 298 438 297 445 L 302 448 L 311 446 Q 316 443 318 437 L 317 433 Q 315 431 310 432 Z " /><path fill="rgb(0,0,0)" stroke="rgb(0,0,0)" stroke-width="1" opacity="0.9450980392156862" d="M 151.5 447 Q 175 445 183 458.5 Q 188.7 464.8 187 478.5 Q 183.2 492.2 173.5 500 Q 165.5 507.5 153.5 511 L 136.5 512 Q 126 510 120 503.5 Q 111.7 496.8 114 479.5 Q 117.3 467.3 125.5 460 Q 135.6 450.6 151.5 447 Z M 154 463 L 138 471 Q 132 475 130 483 L 131 492 L 134 494 L 140 496 Q 153 496 161 490 Q 168 485 171 476 Q 172 469 169 466 Q 165 462 154 463 Z " /><path fill="rgb(0,0,0)" stroke="rgb(0,0,0)" stroke-width="1" opacity="0" d="M 0 0 L 358 0.5 L 337.5 4 Q 321.3 8.3 308.5 16 Q 285 29.5 268 49.5 Q 247.5 73 237 106.5 L 232 133.5 L 232 157.5 L 231 158.5 L 231 169.5 L 230 170.5 L 229 182.5 Q 224.6 206.1 216 225.5 Q 204.1 252.1 187 273.5 Q 168.2 297.2 145.5 317 L 113 347.5 L 105 360.5 L 104 372.5 Q 105.5 381 111.5 385 L 117.5 388 L 133.5 388 L 168 378 Q 166.9 394.8 175.5 403 Q 183 410 199.5 408 Q 219.3 404.3 234.5 396 L 242.5 405 L 251.5 408 L 260.5 408 L 278.5 401 L 305.5 385 L 314.5 384 L 331.5 400 L 341.5 404 L 349.5 404 L 367.5 397 L 396.5 379 Q 418.5 363 437 343.5 Q 473.9 305.4 495 251.5 L 503 226.5 L 509 197.5 L 510 178.5 L 511 177.5 L 511 151.5 L 510 150.5 L 510 139.5 L 509 138.5 L 507 120.5 L 502 101.5 L 496 85.5 L 484 62.5 L 465 38 L 449.5 25 L 425.5 11 L 400.5 3 L 381 0.5 L 512 0 L 512 512 L 149.5 512 L 149.5 511 L 153.5 511 L 163.5 507 L 178 495.5 Q 184.2 488.7 187 478.5 L 187 467.5 Q 184.3 457.3 176.5 452 Q 168.4 445.1 151.5 447 Q 134.4 450.9 124 461.5 L 115 475.5 Q 112.7 482.2 114 492.5 Q 116.3 500.3 121.5 505 Q 126.7 510.3 136 511.5 L 0 512 L 0.5 430 L 2 436.5 L 7.5 444 L 20.5 451 L 33.5 452 Q 35 449.5 40.5 451 L 57.5 444 L 73 430.5 L 80 418.5 L 82 405.5 L 79 395.5 L 71.5 387 Q 62.9 379.6 45.5 381 Q 20.9 385.9 8 402.5 Q 2.4 408.9 0.5 419 L 0 0 Z M 307 416 L 291 424 Q 284 430 281 441 Q 280 450 284 455 Q 289 462 300 464 Q 314 464 322 458 Q 331 452 334 439 L 334 434 L 331 426 Q 325 414 307 416 Z " /><path fill="rgb(0,0,0)" stroke="rgb(0,0,0)" stroke-width="1" opacity="0" d="M 360.5 16 L 388.5 17 L 414.5 24 Q 440.8 34.8 458 54.5 Q 478.4 77.1 488 110.5 L 494 139.5 L 495 177.5 L 494 178.5 L 494 188.5 L 493 189.5 L 491 207.5 L 487 224.5 L 473 262.5 Q 449.3 312.3 410.5 347 L 375.5 374 L 353.5 386 L 343.5 388 L 337 383.5 L 328.5 374 L 316.5 368 L 307.5 368 L 289.5 375 L 264.5 390 L 258.5 392 L 252.5 392 L 249 389.5 L 250.5 386 Q 269.7 374.2 285 358.5 L 285 356.5 L 275.5 347 L 273.5 347 L 246.5 370 L 230.5 380 L 207.5 390 L 197.5 392 L 188.5 392 L 184 388.5 L 183 386.5 L 183 374.5 L 185.5 370 Q 225.2 350.7 255 321.5 L 244.5 310 Q 218.7 334.2 186.5 352 L 149.5 369 L 131.5 374 L 123.5 374 L 121 373 L 120 366.5 L 123 360.5 L 134.5 348 Q 160.7 326.2 184 301.5 Q 212.6 271.6 231 231.5 Q 240.2 210.2 245 184.5 L 246 171.5 L 247 170.5 L 247 160.5 L 248 159.5 L 248 134.5 Q 250.7 132.8 249 126.5 L 256 100.5 Q 269.8 66.8 295.5 45 Q 308.2 33.7 324.5 26 L 343.5 19 L 360.5 16 Z M 373 128 L 363 133 Q 354 140 352 154 Q 351 174 360 185 Q 365 190 373 192 L 380 192 L 390 187 Q 398 180 400 167 Q 401 146 392 136 Q 387 127 373 128 Z M 453 128 L 443 133 Q 434 140 432 154 Q 431 174 440 185 Q 445 190 453 192 L 460 192 L 470 187 Q 478 180 480 167 Q 481 146 472 136 Q 467 127 453 128 Z M 266 288 L 256 300 L 267 310 L 268 310 L 278 298 L 266 288 Z " /><path fill="rgb(0,0,0)" stroke="rgb(0,0,0)" stroke-width="1" opacity="0" d="M 374.5 144 Q 380.3 143.3 381 147.5 Q 385.2 153.3 384 164.5 Q 382.8 172.3 377.5 176 Q 371.8 176.8 371 172.5 Q 366.8 166.7 368 155.5 Q 369.2 147.7 374.5 144 Z " /><path fill="rgb(0,0,0)" stroke="rgb(0,0,0)" stroke-width="1" opacity="0" d="M 454.5 144 Q 460.3 143.3 461 147.5 Q 465.2 153.3 464 164.5 Q 462.8 172.3 457.5 176 Q 451.8 176.8 451 172.5 Q 446.8 166.7 448 155.5 Q 449.2 147.7 454.5 144 Z " /><path fill="rgb(0,0,0)" stroke="rgb(0,0,0)" stroke-width="1" opacity="0" d="M 47.5 397 Q 60.8 395.8 65 403.5 Q 66.5 414 62 418.5 L 52.5 428 L 43.5 433 L 29.5 436 Q 28.3 433.7 23.5 435 L 17 430.5 L 16 421.5 Q 20.2 410.2 29.5 404 Q 36.8 398.8 47.5 397 Z " /><path fill="rgb(0,0,0)" stroke="rgb(0,0,0)" stroke-width="1" opacity="0" d="M 309.5 432 Q 314.9 431.4 317 433 L 318 436.5 Q 316.4 443.4 310.5 446 L 301.5 448 L 297 444.5 Q 297.9 437.9 302.5 435 L 309.5 432 Z " /><path fill="rgb(0,0,0)" stroke="rgb(0,0,0)" stroke-width="1" opacity="0" d="M 153.5 463 Q 164.6 461.6 169 466 Q 171.7 468.6 171 475.5 Q 167.8 484.8 160.5 490 Q 153.4 496.4 139.5 496 L 133.5 494 L 131 491.5 L 130 482.5 Q 132.1 475.1 137.5 471 L 153.5 463 Z " /></svg>